<?xml version="1.0" encoding="utf-8"?>
<!-- Generator: Adobe Illustrator 27.5.0, SVG Export Plug-In . SVG Version: 6.00 Build 0)  -->
<svg version="1.1" xmlns="http://www.w3.org/2000/svg" xmlns:xlink="http://www.w3.org/1999/xlink" x="0px" y="0px"
	 viewBox="0 0 841.89 595.276" style="enable-background:new 0 0 841.89 595.276;" xml:space="preserve">
<g id="Background">
	<rect x="123.307" style="fill:#FFFFFF;" width="595.276" height="595.276"/>
</g>
<g id="QR_Code">
	<g>
		<rect x="166.983" y="43.675" style="fill:#FFFFFF;" width="507.924" height="507.925"/>
		<g>
			<g>
				<rect x="593.985" y="76.522" style="fill:#231815;" width="48.076" height="48.076"/>
				<path style="fill:#231815;" d="M561.138,43.675h113.769v113.769H561.138V43.675z M576.368,142.214h83.309V58.905h-83.309
					V142.214z"/>
			</g>
			<g>
				<rect x="199.829" y="76.522" style="fill:#231815;" width="48.076" height="48.076"/>
				<path style="fill:#231815;" d="M166.983,43.675h113.769v113.769H166.983V43.675z M182.212,142.214h83.309V58.905h-83.309
					V142.214z"/>
			</g>
			<g>
				<rect x="199.829" y="470.678" style="fill:#231815;" width="48.076" height="48.076"/>
				<path style="fill:#231815;" d="M166.983,437.831h113.769V551.6H166.983V437.831z M182.212,536.37h83.309v-83.309h-83.309V536.37
					z"/>
			</g>
			<g>
				<rect x="527.662" y="486.47" style="fill:#231815;" width="16.49" height="16.49"/>
				<rect x="544.085" y="519.317" style="fill:#231815;" width="16.489" height="16.49"/>
				<rect x="248.469" y="289.393" style="fill:#231815;" width="16.49" height="16.49"/>
				<rect x="281.315" y="289.393" style="fill:#231815;" width="16.49" height="16.49"/>
				<rect x="478.393" y="305.816" style="fill:#231815;" width="16.489" height="16.489"/>
				<rect x="347.007" y="289.393" style="fill:#231815;" width="16.49" height="16.49"/>
				<rect x="576.932" y="289.393" style="fill:#231815;" width="16.489" height="16.49"/>
				<polygon style="fill:#231815;" points="461.969,125.161 461.969,125.228 461.969,141.651 478.459,141.651 478.459,125.228 
					478.459,125.161 478.459,108.738 462.036,108.738 462.036,92.382 462.036,92.315 462.036,75.892 445.546,75.892 445.546,92.315 
					445.546,92.382 445.546,108.805 461.969,108.805 				"/>
				<polygon style="fill:#231815;" points="544.152,158.074 544.152,158.008 544.152,141.585 527.662,141.585 527.662,158.008 
					527.662,158.074 527.662,174.497 544.152,174.497 				"/>
				<rect x="494.815" y="141.585" style="fill:#231815;" width="16.49" height="16.49"/>
				<rect x="494.815" y="108.738" style="fill:#231815;" width="16.49" height="16.49"/>
				<rect x="609.778" y="437.201" style="fill:#231815;" width="16.489" height="16.49"/>
				<polygon style="fill:#231815;" points="561.701,486.47 561.701,502.961 576.932,502.961 576.932,519.383 593.421,519.383 
					593.421,502.894 578.192,502.894 578.192,486.537 593.354,486.537 593.421,486.537 609.845,486.537 609.845,470.048 
					593.421,470.048 593.354,470.048 576.998,470.048 576.998,453.624 560.575,453.624 560.575,437.268 576.998,437.268 
					576.998,420.845 593.421,420.845 593.421,404.355 576.932,404.355 576.932,420.778 560.508,420.778 560.508,437.201 
					544.085,437.201 544.085,453.691 560.508,453.691 560.508,470.114 576.932,470.114 576.932,486.47 				"/>
				<polygon style="fill:#231815;" points="445.546,486.47 445.546,486.537 445.546,502.961 462.036,502.961 462.036,486.537 
					462.036,486.47 462.036,470.048 445.546,470.048 				"/>
				<rect x="461.969" y="404.355" style="fill:#231815;" width="16.489" height="16.489"/>
				<polygon style="fill:#231815;" points="511.306,437.201 494.882,437.201 494.815,437.201 478.459,437.201 478.393,437.201 
					461.969,437.201 461.969,453.691 478.393,453.691 478.459,453.691 494.815,453.691 494.882,453.691 511.239,453.691 
					511.239,470.114 527.729,470.114 527.729,453.624 511.306,453.624 				"/>
				<polygon style="fill:#231815;" points="281.381,190.921 297.805,190.921 297.805,174.497 314.227,174.497 314.227,158.008 
					297.738,158.008 297.738,174.431 281.381,174.431 281.315,174.431 264.958,174.431 264.892,174.431 248.469,174.431 
					248.469,190.921 264.892,190.921 264.958,190.921 281.315,190.921 				"/>
				<polygon style="fill:#231815;" points="544.152,108.805 544.152,108.738 544.152,92.315 527.729,92.315 527.729,75.892 
					511.239,75.892 511.239,92.382 527.662,92.382 527.662,108.738 527.662,108.805 527.662,125.228 544.152,125.228 				"/>
				<polygon style="fill:#231815;" points="314.161,125.228 330.584,125.228 330.584,141.585 330.584,141.651 330.584,158.074 
					347.074,158.074 347.074,141.651 347.074,141.585 347.074,125.161 330.651,125.161 330.651,108.738 314.227,108.738 
					314.227,92.315 297.738,92.315 297.738,108.805 314.161,108.805 				"/>
				<rect x="199.199" y="174.431" style="fill:#231815;" width="16.489" height="16.49"/>
				<polygon style="fill:#231815;" points="462.036,174.497 478.459,174.497 478.459,158.008 461.969,158.008 461.969,174.431 
					445.546,174.431 445.546,190.921 462.036,190.921 				"/>
				<polygon style="fill:#231815;" points="379.92,174.497 379.92,158.008 363.431,158.008 363.431,174.431 347.007,174.431 
					347.007,190.921 363.431,190.921 363.431,207.344 379.92,207.344 379.92,190.854 363.497,190.854 363.497,174.497 				"/>
				<rect x="626.201" y="223.7" style="fill:#231815;" width="16.49" height="16.489"/>
				<rect x="576.932" y="174.431" style="fill:#231815;" width="16.489" height="16.49"/>
				<polygon style="fill:#231815;" points="429.19,437.268 445.613,437.268 445.613,420.778 429.123,420.778 429.123,437.201 
					412.7,437.201 412.7,453.691 429.19,453.691 				"/>
				<rect x="248.469" y="404.355" style="fill:#231815;" width="16.49" height="16.489"/>
				<rect x="412.7" y="470.048" style="fill:#231815;" width="16.489" height="16.489"/>
				<polygon style="fill:#231815;" points="379.854,453.691 379.854,470.114 396.343,470.114 396.343,453.691 396.343,453.624 
					396.343,437.201 379.92,437.201 379.92,420.778 363.431,420.778 363.431,437.268 379.854,437.268 379.854,453.624 				"/>
				<polygon style="fill:#231815;" points="347.074,470.114 347.074,453.624 330.651,453.624 330.651,437.201 314.227,437.201 
					314.227,420.778 297.738,420.778 297.738,437.268 314.161,437.268 314.161,453.691 330.584,453.691 330.584,470.114 				"/>
			</g>
			<g>
				<g>
					<g>
						<path style="fill:#231815;" d="M243.617,281.772c-7.663,0-10.587,0.101-14.922,0.302c0.605-4.336,0.807-7.763,0.807-14.821
							v-55.151c0-5.344-0.202-9.679-0.807-14.519c5.142,0.303,6.554,0.303,14.821,0.303h26.416c16.334,0,25.912,7.864,25.912,21.173
							c0,6.15-2.016,10.99-5.848,14.418c-2.218,1.916-4.033,2.924-8.167,4.436c4.94,1.109,7.562,2.319,10.486,4.84
							c4.336,3.831,6.554,9.276,6.554,15.93c0,14.519-10.284,23.089-27.828,23.089H243.617z M267.008,230.25
							c5.344,0,8.671-3.126,8.671-8.066s-3.126-7.764-8.872-7.764h-17.544v15.829H267.008z M249.263,265.135h18.552
							c6.352,0,10.183-3.529,10.183-9.477c0-5.848-3.831-9.276-10.284-9.276h-18.451V265.135z"/>
						<path style="fill:#231815;" d="M323.973,281.772c-6.957,0-11.091,0.101-14.922,0.302c0.605-3.529,0.807-7.965,0.807-14.72
							v-53.235c0-7.058-0.202-11.393-0.807-16.233h21.98c-0.706,5.243-0.807,8.066-0.807,15.93v50.009h24.4
							c8.57,0,11.998-0.101,16.737-0.706v19.358c-3.731-0.504-8.671-0.706-16.737-0.706H323.973z"/>
						<path style="fill:#231815;" d="M435.382,281.772c-0.807-4.84-1.411-7.461-2.42-10.889l-2.723-8.57h-28.735l-2.722,8.57
							c-1.311,4.033-2.016,7.159-2.521,10.889h-23.593c1.512-3.025,2.42-5.445,4.84-12.301l21.778-60.696
							c1.815-4.94,2.722-7.965,3.226-10.889h26.315c0.707,2.924,1.411,5.545,3.428,10.889l21.88,60.696
							c1.915,5.344,3.528,9.477,4.84,12.301H435.382z M415.721,215.126l-9.377,30.247H425.3L415.721,215.126z"/>
						<path style="fill:#231815;" d="M519.77,227.125c-1.916-9.175-7.259-13.712-15.93-13.712c-12.301,0-19.459,9.679-19.459,26.315
							c0,16.434,7.461,26.416,19.963,26.416c5.545,0,10.284-2.319,13.208-6.352c1.714-2.42,2.42-4.436,3.025-8.671l20.971,3.126
							c-1.916,8.57-4.134,13.51-8.368,18.451c-6.251,7.159-16.031,10.99-28.231,10.99c-12.301,0-22.685-3.831-29.844-11.091
							c-7.461-7.562-11.696-19.358-11.696-32.869c0-13.712,4.235-25.307,12.2-33.171c6.957-6.755,17.14-10.486,28.937-10.486
							c13.006,0,23.19,4.436,29.743,13.208c3.226,4.134,4.94,7.864,6.251,13.813L519.77,227.125z"/>
						<path style="fill:#231815;" d="M619.987,266.849c5.949,8.873,7.259,10.687,10.687,14.922H604.46
							c-1.411-3.226-4.336-8.57-6.957-12.805l-15.628-25.005l-10.183,10.183v12.704c0,6.251,0.202,9.578,0.807,14.922h-21.375
							c0.605-5.142,0.807-8.873,0.807-14.922v-54.042c0-6.15-0.202-10.082-0.807-14.922h21.375
							c-0.605,5.243-0.807,8.57-0.807,14.922v17.846l20.064-21.476c3.932-4.134,6.554-7.562,8.772-11.292h27.223
							c-1.815,1.815-2.521,2.621-3.932,4.033c-5.243,5.243-5.243,5.243-7.058,7.058l-21.072,22.081L619.987,266.849z"/>
					</g>
				</g>
				<g>
					<g>
						<path style="fill:#231815;" d="M237.112,385.217c0,9.478,0.101,13.107,0.807,17.544h-21.677
							c0.706-4.436,0.907-8.469,0.907-17.241v-52.227c0-6.654-0.202-9.982-0.807-14.72c4.134,0.202,6.957,0.303,14.72,0.303h29.138
							c8.873,0,12.2-0.101,16.939-0.706v19.157c-4.436-0.504-8.368-0.706-16.838-0.706h-23.19v16.535h18.955
							c7.864,0,11.696-0.202,16.132-0.706v18.653c-4.436-0.504-8.469-0.706-16.132-0.706h-18.955V385.217z"/>
						<path style="fill:#231815;" d="M336.523,402.76c-0.605-3.226-1.815-7.36-4.94-15.729c-3.226-8.772-4.436-11.091-6.957-13.309
							c-2.117-1.916-4.638-2.722-7.864-2.722h-10.284v16.535c0,6.856,0.202,10.587,0.807,15.225h-21.677
							c0.605-4.638,0.807-7.663,0.807-15.124v-54.244c0-6.251-0.202-9.982-0.807-14.821c4.436,0.202,8.167,0.303,15.023,0.303
							h26.214c16.334,0,25.811,8.469,25.811,22.988c0,7.159-2.017,12.805-5.949,16.535c-2.521,2.319-4.638,3.428-9.578,5.041
							c5.142,1.613,7.461,3.932,10.687,11.091c1.512,3.226,2.924,6.654,7.461,17.544c1.109,2.823,2.319,5.344,4.84,10.687H336.523z
							 M322.206,353.759c5.949,0,9.578-3.63,9.578-9.377c0-5.646-3.226-8.57-9.478-8.57h-15.829v17.947H322.206z"/>
						<path style="fill:#231815;" d="M390.664,318.874c-0.605,4.134-0.807,7.562-0.807,14.922v54.042
							c0,6.957,0.202,10.688,0.807,14.922h-22.181c0.605-3.932,0.807-8.167,0.807-14.922v-54.042c0-7.562-0.202-10.486-0.807-14.922
							H390.664z"/>
						<path style="fill:#231815;" d="M404.073,333.393c0-6.856-0.202-10.183-0.907-14.821c4.033,0.202,6.554,0.303,14.922,0.303
							h21.072c12.401,0,22.383,3.428,29.138,9.982c7.36,7.259,11.091,17.846,11.091,31.256c0,13.813-4.033,24.904-11.696,32.566
							c-6.755,6.654-16.334,10.083-28.332,10.083h-21.274c-7.763,0-10.587,0.101-14.821,0.302c0.605-4.436,0.807-7.764,0.807-14.72
							V333.393z M437.546,385.116c6.554,0,11.191-1.714,14.821-5.344c4.134-4.235,6.352-10.99,6.352-19.358
							c0-8.57-1.916-14.821-5.848-18.753c-3.529-3.529-8.368-5.142-15.628-5.142h-13.208v48.598H437.546z"/>
					</g>
				</g>
				<g>
					<g>
						<path style="fill:#231815;" d="M546.638,402.76c-0.807-4.84-1.411-7.461-2.42-10.889l-2.722-8.57h-28.735l-2.722,8.57
							c-1.311,4.033-2.016,7.159-2.521,10.889h-23.593c1.512-3.025,2.42-5.445,4.84-12.301l21.778-60.696
							c1.815-4.94,2.722-7.965,3.226-10.889h26.315c0.706,2.924,1.412,5.545,3.428,10.889l21.879,60.696
							c1.916,5.344,3.529,9.478,4.84,12.301H546.638z M526.977,336.115l-9.377,30.247h18.955L526.977,336.115z"/>
					</g>
				</g>
				<g>
					<g>
						<path style="fill:#231815;" d="M612.174,387.838c0,5.243,0.202,9.679,0.807,14.922H591c0.504-4.638,0.807-9.276,0.807-14.922
							v-18.652l-23.19-38.112c-1.815-3.126-4.033-6.453-8.066-12.2h25.509c1.109,3.529,2.218,6.15,4.739,10.587l11.192,20.467
							l11.192-20.367c2.521-4.638,3.932-7.764,4.638-10.687h25.509c-2.924,4.235-6.755,9.982-8.066,12.2l-23.089,38.112V387.838z"/>
					</g>
				</g>
			</g>
		</g>
		<g>
			<polygon style="fill:#231815;" points="527.729,535.807 527.729,519.317 511.239,519.317 511.239,535.74 494.882,535.74 
				494.882,519.383 494.882,519.317 494.882,502.961 511.306,502.961 511.306,486.47 494.815,486.47 494.815,502.894 
				478.393,502.894 478.393,519.317 478.393,519.383 478.393,535.807 494.815,535.807 494.815,551.6 511.306,551.6 511.306,535.807 
							"/>
			<polygon style="fill:#231815;" points="593.421,535.74 593.354,535.74 576.932,535.74 576.932,551.6 609.845,551.6 
				609.845,535.74 			"/>
			<polygon style="fill:#231815;" points="182.776,223.7 182.776,223.767 182.776,240.19 199.199,240.19 199.199,256.613 
				215.688,256.613 215.688,240.123 199.266,240.123 199.266,223.767 199.266,223.7 199.266,207.277 182.842,207.277 
				182.842,190.921 182.842,190.854 182.842,174.431 166.983,174.431 166.983,207.344 182.776,207.344 			"/>
			<polygon style="fill:#231815;" points="182.776,289.46 199.266,289.46 199.266,272.97 182.842,272.97 182.842,256.547 
				166.983,256.547 166.983,273.036 182.776,273.036 			"/>
			<polygon style="fill:#231815;" points="182.842,355.152 182.842,355.085 182.842,338.729 182.842,338.662 182.842,322.306 
				199.266,322.306 199.266,305.816 182.776,305.816 182.776,322.239 166.983,322.239 166.983,371.576 182.842,371.576 			"/>
			<polygon style="fill:#231815;" points="412.7,59.535 412.7,75.892 412.7,75.959 412.7,92.382 429.19,92.382 429.19,75.959 
				429.19,75.892 429.19,59.469 412.766,59.469 412.766,43.675 396.277,43.675 396.277,59.535 			"/>
			<path style="fill:#231815;" d="M297.738,59.469v16.49h16.49V59.535h16.357v16.423h16.423h0.066h16.357h0.067h16.356v16.356v0.067
				v16.356h-16.356V92.315h-16.49v16.49h16.423v16.423h16.423v16.423h16.423v16.423H412.7v16.423h16.489v-16.423h16.424v-16.423
				v-0.067v-16.423H429.19v-16.423H412.7v16.423v0.067v16.357h-16.357v-16.423H379.92v-16.356h16.423V92.382v-0.067V75.892H379.92
				V59.469h-16.423h-0.067h-16.357h-0.066h-16.357V43.675h-16.489v15.793H297.738z M412.766,141.651h16.357v16.357h-16.357V141.651z
				"/>
			<polygon style="fill:#231815;" points="494.815,43.675 478.459,43.675 445.546,43.675 445.546,59.535 461.969,59.535 
				462.036,59.535 478.393,59.535 478.393,75.959 494.882,75.959 494.882,59.535 511.239,59.535 511.306,59.535 527.662,59.535 
				527.729,59.535 544.152,59.535 544.152,43.675 			"/>
			<rect x="659.047" y="207.277" style="fill:#231815;" width="15.86" height="16.49"/>
			<rect x="659.047" y="305.816" style="fill:#231815;" width="15.86" height="16.489"/>
			<polygon style="fill:#231815;" points="659.114,371.509 642.624,371.509 642.624,387.998 659.047,387.998 659.047,404.355 
				659.047,404.422 659.047,420.778 642.624,420.778 642.624,437.268 659.114,437.268 659.114,420.845 674.907,420.845 
				674.907,387.931 659.114,387.931 			"/>
			<polygon style="fill:#231815;" points="659.047,256.547 659.047,256.613 659.047,272.97 642.624,272.97 642.624,289.46 
				659.114,289.46 659.114,273.036 674.907,273.036 674.907,240.123 659.047,240.123 			"/>
			<polygon style="fill:#231815;" points="659.047,174.431 642.624,174.431 642.624,190.921 659.047,190.921 659.114,190.921 
				674.907,190.921 674.907,174.431 659.114,174.431 			"/>
			<polygon style="fill:#231815;" points="182.842,404.422 199.266,404.422 199.266,387.931 182.776,387.931 182.776,404.355 
				166.983,404.355 166.983,420.845 182.842,420.845 			"/>
			<polygon style="fill:#231815;" points="429.123,519.317 429.123,535.74 412.766,535.74 412.7,535.74 396.343,535.74 
				396.343,519.383 412.766,519.383 412.766,502.894 396.343,502.894 396.343,486.47 379.854,486.47 379.854,502.961 
				396.277,502.961 396.277,519.317 379.854,519.317 379.854,535.74 363.497,535.74 363.431,535.74 347.007,535.74 347.007,551.6 
				379.92,551.6 396.277,551.6 429.19,551.6 429.19,535.807 445.613,535.807 445.613,519.317 			"/>
			<polygon style="fill:#231815;" points="330.651,535.807 330.651,519.383 347.074,519.383 347.074,502.961 363.497,502.961 
				363.497,486.47 347.007,486.47 347.007,502.894 330.651,502.894 330.651,486.47 314.227,486.47 314.227,470.048 297.738,470.048 
				297.738,486.537 314.161,486.537 314.161,502.894 314.161,502.961 314.161,519.317 314.161,519.383 314.161,535.74 
				297.738,535.74 297.738,551.6 314.227,551.6 314.227,535.807 			"/>
		</g>
		<polygon style="fill:#231815;" points="659.047,535.74 642.691,535.74 642.691,519.317 626.268,519.317 626.268,502.894 
			609.778,502.894 609.778,519.383 626.201,519.383 626.201,535.74 626.201,535.807 626.201,551.6 674.907,551.6 674.907,535.74 
			659.114,535.74 		"/>
		<polygon style="fill:#231815;" points="659.047,453.624 659.047,470.048 642.691,470.048 642.624,470.048 626.201,470.048 
			626.201,486.537 642.624,486.537 642.691,486.537 659.047,486.537 659.047,502.894 659.047,502.961 659.047,519.383 
			674.907,519.383 674.907,486.47 674.907,470.114 674.907,453.624 		"/>
	</g>
</g>
</svg>
