<?xml version="1.0" encoding="utf-8"?>
<!-- Generator: Adobe Illustrator 24.1.1, SVG Export Plug-In . SVG Version: 6.00 Build 0)  -->
<svg version="1.1" id="Layer_1" xmlns="http://www.w3.org/2000/svg" xmlns:xlink="http://www.w3.org/1999/xlink" x="0px" y="0px"
	 viewBox="0 0 96 96" style="enable-background:new 0 0 96 96;" xml:space="preserve">
<style type="text/css">
	.st0{fill:#5956E9;}
</style>
<g>
	<g>
		<g>
			<path class="st0" d="M38,35.4V23.8c0-5.5,4.5-10,10-10V0C34.9,0,24.2,10.7,24.2,23.8v25C26.9,42.7,31.9,37.9,38,35.4z"/>
		</g>
		<g>
			<path class="st0" d="M70.4,51.3c-1.7,4.7-6.2,7.9-11.4,7.9c-0.3,0-0.6,0-0.9,0c0,0.1,0,0.1,0,0.2v12.8c0,5.5-4.5,10-10,10
				c-3.1,0-5.9-1.4-7.7-3.7v16.1c2.4,0.8,5,1.3,7.7,1.3c13.1,0,23.8-10.7,23.8-23.8V59.4C71.8,56.6,71.3,53.9,70.4,51.3z"/>
		</g>
		<g>
			<path class="st0" d="M47.1,49.5c-0.2-0.8-0.2-1.5-0.2-2.3c0-4.7,2.7-8.8,6.7-10.8c-1.8-0.4-3.6-0.6-5.5-0.6
				c-2.7,0-5.3,0.5-7.7,1.3c-0.4,0.1-0.8,0.3-1.1,0.4c-0.4,0.2-0.8,0.3-1.1,0.5c-8.1,3.8-13.8,12-13.8,21.6v12.8V96H38v-2.2V59.4
				c0-1.7,0.4-3.3,1.1-4.7c0.3-0.6,0.7-1.2,1.1-1.7C41.9,51.1,44.3,49.7,47.1,49.5z"/>
		</g>
	</g>
	<circle class="st0" cx="59" cy="47.1" r="9.8"/>
</g>
</svg>
