<svg width="211" height="33" viewBox="0 0 211 33" fill="none" xmlns="http://www.w3.org/2000/svg">
<path d="M67.2933 27.0032V15.5954C67.2933 13.1478 68.6717 11.4432 70.7394 11.4432C72.9286 11.4432 74.0232 13.1915 74.0232 15.3769V27.0032H79.091V15.5954C79.091 13.1478 80.5505 11.4432 82.5775 11.4432C84.8479 11.4432 85.9831 13.1915 85.9831 15.3769V27.0032H91.0508V14.2405C91.0508 9.82597 87.7264 6.41675 83.1451 6.41675C79.7802 6.41675 77.9963 8.29619 77.3477 9.21406C76.4557 7.90282 74.5908 6.41675 71.834 6.41675C69.4015 6.41675 67.8203 7.55316 67.0501 8.51473V6.89754H62.2256V27.0032H67.2933Z" fill="white"/>
<path d="M103.417 27.484C109.377 27.484 113.593 22.7635 113.593 16.9504C113.593 11.1809 109.377 6.41675 103.417 6.41675C97.4982 6.41675 93.2413 11.1809 93.2413 16.9504C93.2413 22.7635 97.4982 27.484 103.417 27.484ZM103.417 22.3265C100.539 22.2827 98.5117 19.9662 98.5117 16.9504C98.5117 13.9782 100.539 11.618 103.417 11.5743C106.296 11.618 108.323 13.9782 108.323 16.9504C108.323 19.9662 106.296 22.2827 103.417 22.3265Z" fill="white"/>
<path d="M121.101 27.0032V15.5954C121.101 13.0604 122.601 11.4432 124.629 11.4432C126.899 11.4432 128.075 13.1915 128.075 15.3769V27.0032H133.142V14.2405C133.142 9.82597 130.021 6.41675 125.764 6.41675C123.291 6.41675 121.628 7.55316 120.858 8.51473V6.89754H116.034V27.0032H121.101Z" fill="white"/>
<path d="M145.547 27.484C149.155 27.484 152.155 25.692 153.939 22.9821L149.925 19.9225C149.074 21.496 147.412 22.4139 145.547 22.4576C143.195 22.4139 141.29 20.9715 140.722 18.5239H155.236C155.804 11.4869 151.547 6.41675 145.466 6.41675C139.384 6.41675 135.33 11.312 135.33 16.9504C135.33 22.6324 139.506 27.484 145.547 27.484ZM140.844 14.8524C141.412 12.8418 143.074 11.3558 145.466 11.312C147.858 11.3558 149.56 12.9729 150.087 14.8524H140.844Z" fill="white"/>
<path d="M164.011 27.484C166.524 27.484 168.146 26.5224 168.916 25.6046V27.0032H173.619V14.8524C173.619 10.7001 170.862 6.41675 165.146 6.41675C161.335 6.41675 158.619 8.68956 157.443 11.3995L161.092 13.9345C161.74 12.4485 163.078 11.2246 165.146 11.2246C167.538 11.2246 168.714 12.6233 168.714 13.5849C168.714 14.5464 168.105 15.1146 167.132 15.1146H163.078C159.43 15.1146 156.835 17.3875 156.835 20.8841C156.835 24.5119 159.551 27.484 164.011 27.484ZM164.7 23.1132C162.997 23.1132 162.024 22.1953 162.024 21.0152C162.024 19.8351 162.835 19.0484 164.011 19.0484H168.673V19.3106C168.673 21.4086 167.173 23.1132 164.7 23.1132Z" fill="white"/>
<path d="M182.485 27.484C187.269 27.484 189.823 24.4681 189.823 20.753C189.823 17.3437 187.918 15.1146 183.012 14.2842C181.594 14.0219 180.823 13.5411 180.823 12.5359C180.823 11.7054 181.553 11.0498 182.688 11.0498C183.864 11.0498 184.675 11.6617 184.958 12.667L189.215 11.1372C188.486 8.51473 186.337 6.41675 182.688 6.41675C178.472 6.41675 175.958 9.30147 175.958 12.5796C175.958 16.9504 178.877 18.5239 182.648 19.1795C184.067 19.4417 184.837 19.9662 184.837 21.0152C184.837 22.0205 183.985 22.6324 182.567 22.6324C181.269 22.6324 180.215 21.8457 179.81 20.5781L175.391 22.3702C176.161 25.0801 178.391 27.484 182.485 27.484Z" fill="white"/>
<path d="M200.98 27.484C204.588 27.484 207.588 25.692 209.372 22.9821L205.358 19.9225C204.507 21.496 202.845 22.4139 200.98 22.4576C198.628 22.4139 196.723 20.9715 196.155 18.5239H210.669C211.237 11.4869 206.98 6.41675 200.899 6.41675C194.817 6.41675 190.763 11.312 190.763 16.9504C190.763 22.6324 194.939 27.484 200.98 27.484ZM196.277 14.8524C196.844 12.8418 198.507 11.3558 200.899 11.312C203.291 11.3558 204.993 12.9729 205.52 14.8524H196.277Z" fill="white"/>
<path d="M35.7686 28.6305C33.7671 31.0158 30.2108 31.3269 27.8255 29.3254C25.4402 27.3239 25.1291 23.7676 27.1306 21.3823L40.6517 5.26847C42.6532 2.88315 46.2095 2.57202 48.5948 4.57354C50.9801 6.57507 51.2912 10.1313 49.2897 12.5166L35.7686 28.6305Z" fill="#FEA84B"/>
<path fill-rule="evenodd" clip-rule="evenodd" d="M40.0475 5.97131C41.8805 8.02719 41.9756 11.1704 40.1529 13.3426L27.2215 28.7538C25.3885 26.6979 25.2934 23.5546 27.1161 21.3824L40.0475 5.97131Z" fill="black" fill-opacity="0.3"/>
<path d="M24.295 28.6305C22.2935 31.0158 18.7372 31.3269 16.3519 29.3254C13.9666 27.3239 13.6554 23.7676 15.657 21.3823L29.1781 5.26847C31.1796 2.88315 34.7358 2.57202 37.1211 4.57354C39.5065 6.57507 39.8176 10.1313 37.8161 12.5166L24.295 28.6305Z" fill="#FEA84B"/>
<path fill-rule="evenodd" clip-rule="evenodd" d="M28.7637 5.75854C30.4641 7.81475 30.5095 10.8543 28.733 12.9714L15.6245 28.5936C13.924 26.5374 13.8786 23.4978 15.6551 21.3807L28.7637 5.75854Z" fill="black" fill-opacity="0.3"/>
<path d="M12.8213 28.6305C10.8198 31.0158 7.26358 31.3269 4.87826 29.3254C2.49293 27.3239 2.1818 23.7676 4.18333 21.3823L17.7044 5.26847C19.706 2.88315 23.2622 2.57202 25.6475 4.57354C28.0328 6.57507 28.344 10.1313 26.3424 12.5166L12.8213 28.6305Z" fill="#FEA84B"/>
</svg>
