<svg width="390" height="100" viewBox="0 0 390 100" fill="none" xmlns="http://www.w3.org/2000/svg">
<mask id="mask0_6103_769" style="mask-type:luminance" maskUnits="userSpaceOnUse" x="0" y="0" width="390" height="100">
<path d="M389.196 0H0V100H389.196V0Z" fill="white"/>
</mask>
<g mask="url(#mask0_6103_769)">
<path d="M174.092 52.2H182.334L174.092 77.8H167.056L162.834 64L158.814 77.6H151.777L143.535 52H151.777L155.396 65.6L159.417 52H166.453L170.473 65.6L174.092 52.2Z" fill="white"/>
<path d="M191.18 67.9996C191.984 70.3996 194.195 71.5996 197.211 71.5996C199.221 71.5996 200.829 70.9996 202.035 69.5996L208.066 73.1996C205.654 76.7996 201.834 78.3996 197.01 78.3996C192.788 78.3996 189.37 77.1996 186.757 74.5996C184.345 71.9996 182.938 68.7996 182.938 64.9996C182.938 61.1996 184.144 57.9996 186.757 55.3996C189.37 52.7996 192.587 51.5996 196.407 51.5996C200.025 51.5996 203.242 52.7996 205.654 55.3996C208.066 57.9996 209.273 61.1996 209.273 64.9996C209.273 65.9996 209.072 67.1996 208.87 67.9996H191.18ZM190.979 62.3996H201.834C201.03 59.7996 199.221 58.3996 196.407 58.3996C193.592 58.1996 191.783 59.5996 190.979 62.3996Z" fill="white"/>
<path d="M213.898 77.7994V40.3994H221.538V77.5994H213.898V77.7994Z" fill="white"/>
<path d="M226.965 77.7994V40.3994H234.604V77.5994H226.965V77.7994Z" fill="white"/>
<path d="M252.496 78.3996C248.677 78.3996 245.46 77.1996 242.847 74.5996C240.234 71.9996 239.027 68.7996 239.027 64.9996C239.027 61.1996 240.234 57.9996 242.847 55.3996C245.46 52.7996 248.677 51.5996 252.496 51.5996C254.909 51.5996 257.12 52.1996 259.331 53.3996C261.342 54.5996 262.95 56.1996 264.156 58.1996L257.321 61.9996C256.316 59.9996 254.708 59.1996 252.295 59.1996C250.687 59.1996 249.28 59.7996 248.074 60.7996C247.069 61.9996 246.465 63.3996 246.465 64.9996C246.465 66.7996 247.069 68.1996 248.074 69.1996C249.079 70.3996 250.486 70.7996 252.295 70.7996C254.708 70.7996 256.316 69.7996 257.321 67.9996L263.955 71.7996C262.749 73.7996 261.342 75.3996 259.13 76.5996C257.321 77.7996 254.909 78.3996 252.496 78.3996Z" fill="white"/>
<path d="M275.01 56.7996C275.412 55.1996 276.417 53.9996 277.825 52.9996C279.232 52.1996 280.84 51.5996 282.649 51.5996V60.1996C280.84 59.7996 279.031 60.1996 277.423 61.1996C275.814 62.1996 275.01 63.7996 275.01 65.9996V77.5996H267.371V52.1996H275.01V56.7996Z" fill="white"/>
<path d="M302.752 52.1992H310.794L302.149 76.9992C300.742 80.9992 298.933 83.7992 296.52 85.5992C294.108 87.3992 291.294 88.1992 287.675 87.9992V80.7992C289.484 80.7992 290.892 80.3992 291.696 79.7992C292.701 79.1992 293.505 77.9992 293.907 76.5992L283.855 52.1992H292.299L297.928 67.7992L302.752 52.1992Z" fill="white"/>
<path d="M328.888 51.3994C332.305 51.3994 335.12 52.7994 337.532 55.3994C339.944 57.9994 341.151 61.1994 341.151 64.9994C341.151 68.7994 339.944 71.9994 337.532 74.5994C335.12 77.1994 332.305 78.5994 328.888 78.5994C325.671 78.5994 323.058 77.5994 321.249 75.3994V87.9994H313.609V52.1994H321.249V54.5994C323.058 52.5994 325.47 51.3994 328.888 51.3994ZM322.857 69.5994C324.063 70.7994 325.47 71.1994 327.279 71.1994C329.089 71.1994 330.496 70.5994 331.702 69.5994C332.908 68.3994 333.31 66.9994 333.31 64.9994C333.31 62.9994 332.707 61.5994 331.702 60.3994C330.496 59.1994 329.089 58.7994 327.279 58.7994C325.47 58.7994 324.063 59.3994 322.857 60.3994C321.651 61.5994 321.249 62.9994 321.249 64.9994C321.249 66.9994 321.852 68.3994 322.857 69.5994Z" fill="white"/>
<path d="M359.644 59.5992H354.418V68.5992C354.418 69.5992 354.82 70.1992 355.624 70.5992C356.428 70.7992 357.835 70.9992 359.644 70.7992V77.7992C354.82 78.3992 351.402 77.7992 349.593 76.3992C347.784 74.9992 346.778 72.3992 346.778 68.5992V59.5992H342.758V52.1992H346.778V47.3992L354.418 45.1992V52.3992H359.644V59.5992Z" fill="white"/>
<path d="M385.376 74.5994C382.763 77.1994 379.546 78.5994 375.727 78.5994C371.907 78.5994 368.691 77.1994 366.077 74.5994C363.464 71.9994 362.258 68.7994 362.258 64.9994C362.258 61.1994 363.464 57.9994 366.077 55.3994C368.691 52.7994 371.907 51.3994 375.727 51.3994C379.546 51.3994 382.763 52.7994 385.376 55.3994C387.99 57.9994 389.196 61.1994 389.196 64.9994C389.196 68.7994 387.99 71.9994 385.376 74.5994ZM371.505 69.3994C372.711 70.5994 373.918 70.9994 375.727 70.9994C377.536 70.9994 378.742 70.3994 379.949 69.3994C381.155 68.1994 381.557 66.7994 381.557 64.9994C381.557 63.1994 380.954 61.7994 379.949 60.5994C378.742 59.3994 377.536 58.9994 375.727 58.9994C373.918 58.9994 372.711 59.5994 371.505 60.5994C370.299 61.7994 369.897 63.1994 369.897 64.9994C369.897 66.7994 370.5 68.1994 371.505 69.3994Z" fill="white"/>
<path d="M134.491 3.59967C134.089 0.799673 131.074 -0.800327 128.661 0.199673L104.739 10.1997L99.311 12.3997C97.0996 13.1997 97.5017 16.3997 99.713 16.7997C102.527 17.1997 105.744 17.9997 109.362 18.9997H109.564L109.362 19.1997C112.579 26.9997 114.388 35.3997 114.388 44.1997C114.388 48.9997 113.785 53.7997 112.78 58.3997L129.064 29.9997C131.476 31.9997 133.687 34.1997 135.698 36.3997C137.306 38.1997 140.12 36.7997 139.718 34.3997L134.491 3.59967Z" fill="url(#paint0_linear_6103_769)"/>
<path d="M114.387 44.3994C114.387 35.5994 112.578 26.9994 109.361 19.3994L106.547 24.3994C111.171 31.5994 113.784 40.1994 113.784 49.3994C113.784 52.5994 113.382 55.7994 112.779 58.7994L112.98 58.5994C113.985 53.9994 114.387 49.1994 114.387 44.3994Z" fill="#0A86CC"/>
<path d="M106.547 24.3996L84.8352 62.5996L68.7527 27.9996C67.3455 24.7996 64.33 22.3996 60.9125 21.7996C60.1084 21.5996 59.3043 21.5996 58.5002 21.5996C54.2785 21.5996 50.2579 23.9996 48.4486 27.9996L45.6342 34.1996L44.0259 37.7996L31.763 64.1996L31.1599 63.1996L20.9074 45.3996L20.1032 43.7996C18.8971 41.5996 16.0826 40.7996 13.8713 41.9996L2.41252 48.5996C0.201184 49.7996 -0.60294 52.5996 0.603246 54.7996L23.1187 94.1996C25.129 97.7996 28.7476 99.7996 32.7682 99.7996C32.9692 99.7996 33.1703 99.7996 33.1703 99.7996C33.7733 99.7996 34.3764 99.7996 34.7785 99.5996C38.196 98.9996 41.2115 96.5996 42.8197 93.3996L44.428 89.9996L58.5002 59.5996L59.1032 60.7996L73.5775 91.9996C74.1806 93.1996 74.9847 94.3996 75.7888 95.1996C77.7991 97.1996 80.4125 98.3996 83.227 98.3996C84.0311 98.3996 85.0362 98.3996 85.8404 98.1996C89.0569 97.5996 91.8713 95.5996 93.4795 92.7996L94.0826 91.5996L98.5053 83.7996L112.778 58.7996C113.382 55.7996 113.784 52.5996 113.784 49.3996C113.784 40.1996 111.17 31.5996 106.547 24.3996Z" fill="url(#paint1_linear_6103_769)"/>
</g>
<defs>
<linearGradient id="paint0_linear_6103_769" x1="118.802" y1="7.34397e-05" x2="118.802" y2="58.6119" gradientUnits="userSpaceOnUse">
<stop stop-color="#FFEC00"/>
<stop offset="1" stop-color="#D04FFF"/>
</linearGradient>
<linearGradient id="paint1_linear_6103_769" x1="15.2634" y1="25.3958" x2="152.796" y2="122.605" gradientUnits="userSpaceOnUse">
<stop stop-color="#42E8E0"/>
<stop offset="1" stop-color="#245CE3"/>
</linearGradient>
</defs>
</svg>
